<mxfile host="app.diagrams.net" modified="2023-04-30T17:48:03.596Z" agent="Mozilla/5.0 (Macintosh; Intel Mac OS X 10_15_7) AppleWebKit/537.36 (KHTML, like Gecko) Chrome/112.0.0.0 Safari/537.36" etag="b7Tg_Sf7CpuixWvPpKnn" version="21.2.3" type="github">
  <diagram name="Page-1" id="2YBvvXClWsGukQMizWep">
    <mxGraphModel dx="2924" dy="1053" grid="1" gridSize="10" guides="1" tooltips="1" connect="1" arrows="1" fold="1" page="1" pageScale="1" pageWidth="850" pageHeight="1100" math="0" shadow="0">
      <root>
        <mxCell id="0" />
        <mxCell id="1" parent="0" />
        <mxCell id="aM9ryv3xv72pqoxQDRHE-1" value="executer: executerFacade" style="shape=umlLifeline;perimeter=lifelinePerimeter;whiteSpace=wrap;html=1;container=0;dropTarget=0;collapsible=0;recursiveResize=0;outlineConnect=0;portConstraint=eastwest;newEdgeStyle={&quot;edgeStyle&quot;:&quot;elbowEdgeStyle&quot;,&quot;elbow&quot;:&quot;vertical&quot;,&quot;curved&quot;:0,&quot;rounded&quot;:0};" parent="1" vertex="1">
          <mxGeometry x="30" y="40" width="150" height="820" as="geometry" />
        </mxCell>
        <mxCell id="aM9ryv3xv72pqoxQDRHE-2" value="" style="html=1;points=[];perimeter=orthogonalPerimeter;outlineConnect=0;targetShapes=umlLifeline;portConstraint=eastwest;newEdgeStyle={&quot;edgeStyle&quot;:&quot;elbowEdgeStyle&quot;,&quot;elbow&quot;:&quot;vertical&quot;,&quot;curved&quot;:0,&quot;rounded&quot;:0};" parent="aM9ryv3xv72pqoxQDRHE-1" vertex="1">
          <mxGeometry x="70" y="70" width="10" height="690" as="geometry" />
        </mxCell>
        <mxCell id="aM9ryv3xv72pqoxQDRHE-3" value="skipSite()" style="html=1;verticalAlign=bottom;startArrow=oval;endArrow=block;startSize=8;edgeStyle=elbowEdgeStyle;elbow=vertical;curved=0;rounded=0;" parent="aM9ryv3xv72pqoxQDRHE-1" target="aM9ryv3xv72pqoxQDRHE-2" edge="1">
          <mxGeometry relative="1" as="geometry">
            <mxPoint x="-15" y="70" as="sourcePoint" />
          </mxGeometry>
        </mxCell>
        <mxCell id="aM9ryv3xv72pqoxQDRHE-5" value="1:Shipment" style="shape=umlLifeline;perimeter=lifelinePerimeter;whiteSpace=wrap;html=1;container=0;dropTarget=0;collapsible=0;recursiveResize=0;outlineConnect=0;portConstraint=eastwest;newEdgeStyle={&quot;edgeStyle&quot;:&quot;elbowEdgeStyle&quot;,&quot;elbow&quot;:&quot;vertical&quot;,&quot;curved&quot;:0,&quot;rounded&quot;:0};" parent="1" vertex="1">
          <mxGeometry x="390" y="40" width="100" height="820" as="geometry" />
        </mxCell>
        <mxCell id="aM9ryv3xv72pqoxQDRHE-6" value="" style="html=1;points=[];perimeter=orthogonalPerimeter;outlineConnect=0;targetShapes=umlLifeline;portConstraint=eastwest;newEdgeStyle={&quot;edgeStyle&quot;:&quot;elbowEdgeStyle&quot;,&quot;elbow&quot;:&quot;vertical&quot;,&quot;curved&quot;:0,&quot;rounded&quot;:0};" parent="aM9ryv3xv72pqoxQDRHE-5" vertex="1">
          <mxGeometry x="45" y="80" width="10" height="110" as="geometry" />
        </mxCell>
        <mxCell id="aM9ryv3xv72pqoxQDRHE-7" value="1:getPair(currentIndex)&amp;nbsp;" style="html=1;verticalAlign=bottom;endArrow=block;edgeStyle=elbowEdgeStyle;elbow=vertical;curved=0;rounded=0;" parent="1" source="aM9ryv3xv72pqoxQDRHE-2" target="aM9ryv3xv72pqoxQDRHE-6" edge="1">
          <mxGeometry x="0.0016" relative="1" as="geometry">
            <mxPoint x="195" y="130" as="sourcePoint" />
            <Array as="points">
              <mxPoint x="180" y="120" />
            </Array>
            <mxPoint as="offset" />
          </mxGeometry>
        </mxCell>
        <mxCell id="aM9ryv3xv72pqoxQDRHE-8" value="currShippingPair" style="html=1;verticalAlign=bottom;endArrow=open;dashed=1;endSize=8;edgeStyle=elbowEdgeStyle;elbow=vertical;curved=0;rounded=0;" parent="1" source="aM9ryv3xv72pqoxQDRHE-6" target="aM9ryv3xv72pqoxQDRHE-2" edge="1">
          <mxGeometry relative="1" as="geometry">
            <mxPoint x="195" y="205" as="targetPoint" />
            <Array as="points">
              <mxPoint x="190" y="150" />
              <mxPoint x="120" y="280" />
              <mxPoint x="190" y="280" />
            </Array>
          </mxGeometry>
        </mxCell>
        <mxCell id="0KpCodrSBKkXkNGWr_Dy-8" value="2:getPair(nextIndex)&amp;nbsp;" style="html=1;verticalAlign=bottom;endArrow=block;edgeStyle=elbowEdgeStyle;elbow=vertical;curved=0;rounded=0;" parent="1" edge="1">
          <mxGeometry relative="1" as="geometry">
            <mxPoint x="110" y="190" as="sourcePoint" />
            <Array as="points">
              <mxPoint x="180" y="190" />
            </Array>
            <mxPoint x="435" y="190" as="targetPoint" />
          </mxGeometry>
        </mxCell>
        <mxCell id="0KpCodrSBKkXkNGWr_Dy-9" value="nextShippingPair" style="html=1;verticalAlign=bottom;endArrow=open;dashed=1;endSize=8;edgeStyle=elbowEdgeStyle;elbow=vertical;curved=0;rounded=0;" parent="1" edge="1">
          <mxGeometry relative="1" as="geometry">
            <mxPoint x="110" y="220" as="targetPoint" />
            <Array as="points">
              <mxPoint x="190" y="220" />
              <mxPoint x="120" y="350" />
              <mxPoint x="190" y="350" />
            </Array>
            <mxPoint x="435" y="220" as="sourcePoint" />
          </mxGeometry>
        </mxCell>
        <mxCell id="0KpCodrSBKkXkNGWr_Dy-11" value=":ShippingPair" style="shape=umlLifeline;perimeter=lifelinePerimeter;whiteSpace=wrap;html=1;container=0;dropTarget=0;collapsible=0;recursiveResize=0;outlineConnect=0;portConstraint=eastwest;newEdgeStyle={&quot;edgeStyle&quot;:&quot;elbowEdgeStyle&quot;,&quot;elbow&quot;:&quot;vertical&quot;,&quot;curved&quot;:0,&quot;rounded&quot;:0};" parent="1" vertex="1">
          <mxGeometry x="630" y="40" width="100" height="820" as="geometry" />
        </mxCell>
        <mxCell id="0KpCodrSBKkXkNGWr_Dy-12" value="" style="html=1;points=[];perimeter=orthogonalPerimeter;outlineConnect=0;targetShapes=umlLifeline;portConstraint=eastwest;newEdgeStyle={&quot;edgeStyle&quot;:&quot;elbowEdgeStyle&quot;,&quot;elbow&quot;:&quot;vertical&quot;,&quot;curved&quot;:0,&quot;rounded&quot;:0};" parent="0KpCodrSBKkXkNGWr_Dy-11" vertex="1">
          <mxGeometry x="45" y="200" width="10" height="200" as="geometry" />
        </mxCell>
        <mxCell id="0KpCodrSBKkXkNGWr_Dy-14" value="3.1:getKey(currShippingPair)&amp;nbsp;" style="html=1;verticalAlign=bottom;endArrow=block;edgeStyle=elbowEdgeStyle;elbow=vertical;curved=0;rounded=0;" parent="1" edge="1">
          <mxGeometry relative="1" as="geometry">
            <mxPoint x="110" y="250" as="sourcePoint" />
            <Array as="points">
              <mxPoint x="180" y="250" />
            </Array>
            <mxPoint x="670" y="250" as="targetPoint" />
            <mxPoint as="offset" />
          </mxGeometry>
        </mxCell>
        <mxCell id="0KpCodrSBKkXkNGWr_Dy-17" value="3.2:getAddress()&amp;nbsp;" style="html=1;verticalAlign=bottom;endArrow=block;edgeStyle=elbowEdgeStyle;elbow=vertical;curved=0;rounded=0;" parent="1" target="0KpCodrSBKkXkNGWr_Dy-16" edge="1">
          <mxGeometry relative="1" as="geometry">
            <mxPoint x="690" y="260" as="sourcePoint" />
            <Array as="points">
              <mxPoint x="790" y="260" />
              <mxPoint x="690" y="250" />
              <mxPoint x="710" y="250" />
              <mxPoint x="870" y="380" />
            </Array>
            <mxPoint x="950" y="250" as="targetPoint" />
            <mxPoint as="offset" />
          </mxGeometry>
        </mxCell>
        <mxCell id="0KpCodrSBKkXkNGWr_Dy-15" value=":Site" style="shape=umlLifeline;perimeter=lifelinePerimeter;whiteSpace=wrap;html=1;container=0;dropTarget=0;collapsible=0;recursiveResize=0;outlineConnect=0;portConstraint=eastwest;newEdgeStyle={&quot;edgeStyle&quot;:&quot;elbowEdgeStyle&quot;,&quot;elbow&quot;:&quot;vertical&quot;,&quot;curved&quot;:0,&quot;rounded&quot;:0};" parent="1" vertex="1">
          <mxGeometry x="910" y="40" width="100" height="820" as="geometry" />
        </mxCell>
        <mxCell id="0KpCodrSBKkXkNGWr_Dy-16" value="" style="html=1;points=[];perimeter=orthogonalPerimeter;outlineConnect=0;targetShapes=umlLifeline;portConstraint=eastwest;newEdgeStyle={&quot;edgeStyle&quot;:&quot;elbowEdgeStyle&quot;,&quot;elbow&quot;:&quot;vertical&quot;,&quot;curved&quot;:0,&quot;rounded&quot;:0};" parent="0KpCodrSBKkXkNGWr_Dy-15" vertex="1">
          <mxGeometry x="45" y="210" width="10" height="50" as="geometry" />
        </mxCell>
        <mxCell id="0KpCodrSBKkXkNGWr_Dy-19" value="address" style="html=1;verticalAlign=bottom;endArrow=open;dashed=1;endSize=8;edgeStyle=elbowEdgeStyle;elbow=vertical;curved=0;rounded=0;" parent="1" edge="1">
          <mxGeometry x="-0.0007" relative="1" as="geometry">
            <mxPoint x="690" y="290" as="targetPoint" />
            <Array as="points">
              <mxPoint x="710" y="290" />
              <mxPoint x="640" y="420" />
              <mxPoint x="710" y="420" />
            </Array>
            <mxPoint x="955" y="290" as="sourcePoint" />
            <mxPoint as="offset" />
          </mxGeometry>
        </mxCell>
        <mxCell id="0KpCodrSBKkXkNGWr_Dy-20" value="source" style="html=1;verticalAlign=bottom;endArrow=open;dashed=1;endSize=8;edgeStyle=elbowEdgeStyle;elbow=vertical;curved=0;rounded=0;" parent="1" edge="1">
          <mxGeometry x="-0.0007" relative="1" as="geometry">
            <mxPoint x="110" y="320" as="targetPoint" />
            <Array as="points">
              <mxPoint x="430" y="320" />
              <mxPoint x="360" y="450" />
              <mxPoint x="430" y="450" />
            </Array>
            <mxPoint x="675" y="320" as="sourcePoint" />
            <mxPoint as="offset" />
          </mxGeometry>
        </mxCell>
        <mxCell id="0KpCodrSBKkXkNGWr_Dy-21" value="4.1:getKey(nextShippingPair)&amp;nbsp;" style="html=1;verticalAlign=bottom;endArrow=block;edgeStyle=elbowEdgeStyle;elbow=vertical;curved=0;rounded=0;" parent="1" edge="1">
          <mxGeometry relative="1" as="geometry">
            <mxPoint x="110" y="360" as="sourcePoint" />
            <Array as="points">
              <mxPoint x="180" y="360" />
            </Array>
            <mxPoint x="670" y="360" as="targetPoint" />
            <mxPoint as="offset" />
          </mxGeometry>
        </mxCell>
        <mxCell id="0KpCodrSBKkXkNGWr_Dy-22" value="4.2:getAddress()&amp;nbsp;" style="html=1;verticalAlign=bottom;endArrow=block;edgeStyle=elbowEdgeStyle;elbow=vertical;curved=0;rounded=0;" parent="1" target="0KpCodrSBKkXkNGWr_Dy-23" edge="1">
          <mxGeometry relative="1" as="geometry">
            <mxPoint x="690" y="370" as="sourcePoint" />
            <Array as="points">
              <mxPoint x="790" y="370" />
              <mxPoint x="690" y="360" />
              <mxPoint x="710" y="360" />
              <mxPoint x="870" y="490" />
            </Array>
            <mxPoint x="950" y="360" as="targetPoint" />
            <mxPoint as="offset" />
          </mxGeometry>
        </mxCell>
        <mxCell id="0KpCodrSBKkXkNGWr_Dy-23" value="" style="html=1;points=[];perimeter=orthogonalPerimeter;outlineConnect=0;targetShapes=umlLifeline;portConstraint=eastwest;newEdgeStyle={&quot;edgeStyle&quot;:&quot;elbowEdgeStyle&quot;,&quot;elbow&quot;:&quot;vertical&quot;,&quot;curved&quot;:0,&quot;rounded&quot;:0};" parent="1" vertex="1">
          <mxGeometry x="955" y="360" width="10" height="50" as="geometry" />
        </mxCell>
        <mxCell id="0KpCodrSBKkXkNGWr_Dy-24" value="address" style="html=1;verticalAlign=bottom;endArrow=open;dashed=1;endSize=8;edgeStyle=elbowEdgeStyle;elbow=vertical;curved=0;rounded=0;" parent="1" edge="1">
          <mxGeometry x="-0.0007" relative="1" as="geometry">
            <mxPoint x="690" y="400" as="targetPoint" />
            <Array as="points">
              <mxPoint x="710" y="400" />
              <mxPoint x="640" y="530" />
              <mxPoint x="710" y="530" />
            </Array>
            <mxPoint x="955" y="400" as="sourcePoint" />
            <mxPoint as="offset" />
          </mxGeometry>
        </mxCell>
        <mxCell id="0KpCodrSBKkXkNGWr_Dy-25" value="destination" style="html=1;verticalAlign=bottom;endArrow=open;dashed=1;endSize=8;edgeStyle=elbowEdgeStyle;elbow=vertical;curved=0;rounded=0;" parent="1" edge="1">
          <mxGeometry x="-0.0007" relative="1" as="geometry">
            <mxPoint x="110" y="430" as="targetPoint" />
            <Array as="points">
              <mxPoint x="430" y="430" />
              <mxPoint x="360" y="560" />
              <mxPoint x="430" y="560" />
            </Array>
            <mxPoint x="675" y="430" as="sourcePoint" />
            <mxPoint as="offset" />
          </mxGeometry>
        </mxCell>
        <mxCell id="0KpCodrSBKkXkNGWr_Dy-28" value=":ShippingOrder" style="shape=umlLifeline;perimeter=lifelinePerimeter;whiteSpace=wrap;html=1;container=0;dropTarget=0;collapsible=0;recursiveResize=0;outlineConnect=0;portConstraint=eastwest;newEdgeStyle={&quot;edgeStyle&quot;:&quot;elbowEdgeStyle&quot;,&quot;elbow&quot;:&quot;vertical&quot;,&quot;curved&quot;:0,&quot;rounded&quot;:0};" parent="1" vertex="1">
          <mxGeometry x="1130" y="40" width="100" height="820" as="geometry" />
        </mxCell>
        <mxCell id="0KpCodrSBKkXkNGWr_Dy-29" value="" style="html=1;points=[];perimeter=orthogonalPerimeter;outlineConnect=0;targetShapes=umlLifeline;portConstraint=eastwest;newEdgeStyle={&quot;edgeStyle&quot;:&quot;elbowEdgeStyle&quot;,&quot;elbow&quot;:&quot;vertical&quot;,&quot;curved&quot;:0,&quot;rounded&quot;:0};" parent="0KpCodrSBKkXkNGWr_Dy-28" vertex="1">
          <mxGeometry x="45" y="460" width="10" height="80" as="geometry" />
        </mxCell>
        <mxCell id="0KpCodrSBKkXkNGWr_Dy-30" value="5.1:create(source,destination)&amp;nbsp;" style="html=1;verticalAlign=bottom;endArrow=block;edgeStyle=elbowEdgeStyle;elbow=vertical;curved=0;rounded=0;" parent="1" edge="1">
          <mxGeometry relative="1" as="geometry">
            <mxPoint x="110" y="510" as="sourcePoint" />
            <Array as="points">
              <mxPoint x="180" y="510" />
            </Array>
            <mxPoint x="1170" y="510" as="targetPoint" />
            <mxPoint as="offset" />
          </mxGeometry>
        </mxCell>
        <mxCell id="0KpCodrSBKkXkNGWr_Dy-31" value="6.1:addItem(shippingItem)&amp;nbsp;" style="html=1;verticalAlign=bottom;endArrow=block;edgeStyle=elbowEdgeStyle;elbow=vertical;curved=0;rounded=0;" parent="1" edge="1">
          <mxGeometry relative="1" as="geometry">
            <mxPoint x="110" y="580" as="sourcePoint" />
            <Array as="points">
              <mxPoint x="180" y="580" />
            </Array>
            <mxPoint x="1170" y="580" as="targetPoint" />
            <mxPoint as="offset" />
          </mxGeometry>
        </mxCell>
        <mxCell id="0KpCodrSBKkXkNGWr_Dy-32" value="newOrder" style="html=1;verticalAlign=bottom;endArrow=open;dashed=1;endSize=8;edgeStyle=elbowEdgeStyle;elbow=vertical;curved=0;rounded=0;" parent="1" edge="1">
          <mxGeometry x="-0.0007" relative="1" as="geometry">
            <mxPoint x="110" y="549" as="targetPoint" />
            <Array as="points">
              <mxPoint x="430" y="549" />
              <mxPoint x="360" y="679" />
              <mxPoint x="430" y="679" />
            </Array>
            <mxPoint x="1170" y="549" as="sourcePoint" />
            <mxPoint as="offset" />
          </mxGeometry>
        </mxCell>
        <mxCell id="0KpCodrSBKkXkNGWr_Dy-33" value="7.1:insert(newOrder)&amp;nbsp;" style="html=1;verticalAlign=bottom;endArrow=block;edgeStyle=elbowEdgeStyle;elbow=vertical;curved=0;rounded=0;" parent="1" target="0KpCodrSBKkXkNGWr_Dy-34" edge="1">
          <mxGeometry x="0.0004" relative="1" as="geometry">
            <mxPoint x="110" y="630" as="sourcePoint" />
            <Array as="points">
              <mxPoint x="180" y="630" />
            </Array>
            <mxPoint x="1320" y="630" as="targetPoint" />
            <mxPoint as="offset" />
          </mxGeometry>
        </mxCell>
        <mxCell id="0KpCodrSBKkXkNGWr_Dy-34" value=":ShippingOrderDAO" style="shape=umlLifeline;perimeter=lifelinePerimeter;whiteSpace=wrap;html=1;container=0;dropTarget=0;collapsible=0;recursiveResize=0;outlineConnect=0;portConstraint=eastwest;newEdgeStyle={&quot;edgeStyle&quot;:&quot;elbowEdgeStyle&quot;,&quot;elbow&quot;:&quot;vertical&quot;,&quot;curved&quot;:0,&quot;rounded&quot;:0};" parent="1" vertex="1">
          <mxGeometry x="1340" y="40" width="120" height="820" as="geometry" />
        </mxCell>
        <mxCell id="0KpCodrSBKkXkNGWr_Dy-35" value="" style="html=1;points=[];perimeter=orthogonalPerimeter;outlineConnect=0;targetShapes=umlLifeline;portConstraint=eastwest;newEdgeStyle={&quot;edgeStyle&quot;:&quot;elbowEdgeStyle&quot;,&quot;elbow&quot;:&quot;vertical&quot;,&quot;curved&quot;:0,&quot;rounded&quot;:0};" parent="0KpCodrSBKkXkNGWr_Dy-34" vertex="1">
          <mxGeometry x="55" y="570" width="10" height="170" as="geometry" />
        </mxCell>
        <mxCell id="0KpCodrSBKkXkNGWr_Dy-36" value=":DataBase" style="shape=umlLifeline;perimeter=lifelinePerimeter;whiteSpace=wrap;html=1;container=0;dropTarget=0;collapsible=0;recursiveResize=0;outlineConnect=0;portConstraint=eastwest;newEdgeStyle={&quot;edgeStyle&quot;:&quot;elbowEdgeStyle&quot;,&quot;elbow&quot;:&quot;vertical&quot;,&quot;curved&quot;:0,&quot;rounded&quot;:0};" parent="1" vertex="1">
          <mxGeometry x="1610" y="40" width="120" height="820" as="geometry" />
        </mxCell>
        <mxCell id="0KpCodrSBKkXkNGWr_Dy-37" value="" style="html=1;points=[];perimeter=orthogonalPerimeter;outlineConnect=0;targetShapes=umlLifeline;portConstraint=eastwest;newEdgeStyle={&quot;edgeStyle&quot;:&quot;elbowEdgeStyle&quot;,&quot;elbow&quot;:&quot;vertical&quot;,&quot;curved&quot;:0,&quot;rounded&quot;:0};" parent="0KpCodrSBKkXkNGWr_Dy-36" vertex="1">
          <mxGeometry x="55" y="570" width="10" height="80" as="geometry" />
        </mxCell>
        <mxCell id="0KpCodrSBKkXkNGWr_Dy-38" value="7.2:insert()&amp;nbsp;" style="html=1;verticalAlign=bottom;endArrow=block;edgeStyle=elbowEdgeStyle;elbow=vertical;curved=0;rounded=0;" parent="1" edge="1">
          <mxGeometry x="0.0004" relative="1" as="geometry">
            <mxPoint x="1410" y="650" as="sourcePoint" />
            <Array as="points">
              <mxPoint x="1480" y="650" />
            </Array>
            <mxPoint x="1670" y="650" as="targetPoint" />
            <mxPoint as="offset" />
          </mxGeometry>
        </mxCell>
        <mxCell id="0KpCodrSBKkXkNGWr_Dy-40" value="alt" style="shape=umlFrame;whiteSpace=wrap;html=1;pointerEvents=0;fontStyle=1;strokeWidth=2;" parent="1" vertex="1">
          <mxGeometry x="80" y="600" width="1620" height="230" as="geometry" />
        </mxCell>
        <mxCell id="0KpCodrSBKkXkNGWr_Dy-43" value="return false" style="text;html=1;align=center;verticalAlign=middle;whiteSpace=wrap;rounded=0;fontStyle=1;strokeWidth=2;" parent="1" vertex="1">
          <mxGeometry x="1245" y="660" width="89" height="30" as="geometry" />
        </mxCell>
        <mxCell id="0KpCodrSBKkXkNGWr_Dy-44" value="" style="endArrow=block;dashed=1;endFill=0;endSize=12;html=1;rounded=0;fontStyle=1;strokeWidth=2;" parent="1" edge="1">
          <mxGeometry width="160" relative="1" as="geometry">
            <mxPoint x="99" y="697.6700000000001" as="sourcePoint" />
            <mxPoint y="698" as="targetPoint" />
          </mxGeometry>
        </mxCell>
        <mxCell id="0KpCodrSBKkXkNGWr_Dy-45" value="error message&amp;nbsp;" style="text;html=1;align=center;verticalAlign=middle;whiteSpace=wrap;rounded=0;fontStyle=1;strokeWidth=2;" parent="1" vertex="1">
          <mxGeometry x="10" y="667.5" width="89" height="30" as="geometry" />
        </mxCell>
        <mxCell id="0KpCodrSBKkXkNGWr_Dy-46" value="" style="endArrow=block;dashed=1;endFill=0;endSize=12;html=1;rounded=0;fontStyle=1;strokeWidth=2;" parent="1" target="aM9ryv3xv72pqoxQDRHE-2" edge="1">
          <mxGeometry width="160" relative="1" as="geometry">
            <mxPoint x="1391" y="686.91" as="sourcePoint" />
            <mxPoint x="540" y="686.91" as="targetPoint" />
            <Array as="points">
              <mxPoint x="1065" y="686.91" />
              <mxPoint x="645" y="686.91" />
            </Array>
          </mxGeometry>
        </mxCell>
        <mxCell id="0KpCodrSBKkXkNGWr_Dy-47" value="" style="endArrow=block;dashed=1;endFill=0;endSize=12;html=1;rounded=0;fontStyle=1;strokeWidth=2;" parent="1" target="0KpCodrSBKkXkNGWr_Dy-35" edge="1">
          <mxGeometry width="160" relative="1" as="geometry">
            <mxPoint x="1662" y="678.82" as="sourcePoint" />
            <mxPoint x="1422" y="678.82" as="targetPoint" />
          </mxGeometry>
        </mxCell>
        <mxCell id="0KpCodrSBKkXkNGWr_Dy-54" value="exeption" style="edgeLabel;html=1;align=center;verticalAlign=middle;resizable=0;points=[];" parent="0KpCodrSBKkXkNGWr_Dy-47" vertex="1" connectable="0">
          <mxGeometry x="0.1306" y="-2" relative="1" as="geometry">
            <mxPoint x="13" y="-9" as="offset" />
          </mxGeometry>
        </mxCell>
        <mxCell id="0KpCodrSBKkXkNGWr_Dy-50" value="" style="endArrow=none;dashed=1;html=1;rounded=0;fontStyle=1;strokeWidth=2;entryX=1;entryY=0.539;entryDx=0;entryDy=0;entryPerimeter=0;" parent="1" target="0KpCodrSBKkXkNGWr_Dy-40" edge="1">
          <mxGeometry width="50" height="50" relative="1" as="geometry">
            <mxPoint x="80" y="714.41" as="sourcePoint" />
            <mxPoint x="1430" y="714.41" as="targetPoint" />
            <Array as="points">
              <mxPoint x="1350" y="724" />
            </Array>
          </mxGeometry>
        </mxCell>
        <mxCell id="0KpCodrSBKkXkNGWr_Dy-52" value="" style="rounded=1;whiteSpace=wrap;html=1;" parent="1" vertex="1">
          <mxGeometry x="80" y="631.25" width="61.25" height="42.5" as="geometry" />
        </mxCell>
        <mxCell id="0KpCodrSBKkXkNGWr_Dy-53" value="if already in the system" style="text;html=1;strokeColor=none;fillColor=none;align=center;verticalAlign=middle;whiteSpace=wrap;rounded=0;" parent="1" vertex="1">
          <mxGeometry x="80" y="637.5" width="61.25" height="30" as="geometry" />
        </mxCell>
        <mxCell id="0KpCodrSBKkXkNGWr_Dy-57" value="return true" style="text;html=1;align=center;verticalAlign=middle;whiteSpace=wrap;rounded=0;fontStyle=1;strokeWidth=2;" parent="1" vertex="1">
          <mxGeometry x="1245" y="730" width="89" height="30" as="geometry" />
        </mxCell>
        <mxCell id="0KpCodrSBKkXkNGWr_Dy-61" value="" style="endArrow=block;dashed=1;endFill=0;endSize=12;html=1;rounded=0;fontStyle=1;strokeWidth=2;" parent="1" edge="1">
          <mxGeometry width="160" relative="1" as="geometry">
            <mxPoint x="1391" y="760" as="sourcePoint" />
            <mxPoint x="110" y="760.09" as="targetPoint" />
            <Array as="points">
              <mxPoint x="1065" y="760" />
              <mxPoint x="645" y="760" />
            </Array>
          </mxGeometry>
        </mxCell>
        <mxCell id="xr37b0JjPmlT4EM0uVlo-1" value="loop" style="shape=umlFrame;whiteSpace=wrap;html=1;pointerEvents=0;fontStyle=1;strokeWidth=2;" vertex="1" parent="1">
          <mxGeometry x="80" y="560" width="1110" height="30" as="geometry" />
        </mxCell>
        <mxCell id="xr37b0JjPmlT4EM0uVlo-2" value="sp in currShippingPair" style="text;html=1;strokeColor=none;fillColor=none;align=center;verticalAlign=middle;whiteSpace=wrap;rounded=0;" vertex="1" parent="1">
          <mxGeometry x="130" y="560" width="238.75" height="30" as="geometry" />
        </mxCell>
      </root>
    </mxGraphModel>
  </diagram>
</mxfile>
